#!OML:ASF E:\Steps\Project 1\Capture day 1\Session 2\Subject.ASF
:FULLY-SPECIFIED
:DEGREES
441
root 3.43207 18.8078 7.67027 -154.623 2.98614 176.423
lowerback -28.9846 -3.26244 -5.29595
upperback -1.87862 -1.79322 0.0646854
thorax 13.3881 -0.798624 2.34158
lowerneck -3.0596 -1.72748 -3.06402
upperneck 7.1563 -2.2544 3.13901
head 2.90532 -1.05373 1.47482
rclavicle -3.25122e-015 1.71483e-014
rhumerus -38.9678 -28.2597 -71.8915
rradius 25.2563
rwrist 5.51945
rhand -11.3194 -414.386
rfingers 7.12502
rthumb 14.7128 -443.844
lclavicle -3.25122e-015 1.71483e-014
lhumerus -36.131 3.12741 82.639
lradius 21.1935
lwrist -3.97377
lhand -21.3893 -13.1888
lfingers 7.12502
lthumb 4.99845 16.7322
rfemur -26.2896 10.2487 15.2895
rtibia 13.1505
rfoot -22.2489 0.74118
rtoes -19.3361
lfemur -23.4346 -5.11844 -27.7267
ltibia 13.1491
lfoot -12.929 2.59373
ltoes -24.4966
442
root 3.43478 18.8068 7.65288 -154.629 2.90663 176.414
lowerback -29.0718 -3.30771 -5.40201
upperback -2.0152 -1.78554 0.0669564
thorax 13.2738 -0.783423 2.40565
lowerneck -2.94714 -1.86025 -2.87639
upperneck 7.13075 -2.4331 2.98514
head 2.8748 -1.1428 1.38473
rclavicle -2.0832e-014 -1.53064e-014
rhumerus -38.9702 -28.3875 -71.7462
rradius 24.8913
rwrist 5.6368
rhand -10.9999 -414.028
rfingers 7.12502
rthumb 15.0206 -443.463
lclavicle -2.0832e-014 -1.53064e-014
lhumerus -36.1831 3.27392 82.6548
lradius 21.1052
lwrist -4.21569
lhand -21.3588 -13.0452
lfingers 7.12502
lthumb 5.02796 16.8752
rfemur -26.0151 10.1497 15.3422
rtibia 12.8293
rfoot -22.2216 0.809287
rtoes -19.6867
lfemur -23.2754 -5.09754 -27.7315
ltibia 12.9832
lfoot -12.8258 2.60725
ltoes -25.2472
443
root 3.4383 18.8044 7.62929 -154.546 2.81887 176.461
lowerback -29.3913 -3.38059 -5.39893
upperback -2.11447 -1.83345 0.0950307
thorax 13.3094 -0.789551 2.41184
lowerneck -2.65518 -1.83529 -2.98709
upperneck 6.83295 -2.40577 3.07581
head 2.72297 -1.13376 1.4347
rclavicle -4.49595e-015 -1.42007e-014
rhumerus -38.9446 -28.2594 -71.7739
rradius 24.6245
rwrist 5.72028
rhand -10.852 -413.76
rfingers 7.12502
rthumb 15.1631 -443.185
lclavicle -4.49595e-015 -1.42007e-014
lhumerus -36.0805 3.29809 82.7409
lradius 21.0022
lwrist -4.11136
lhand -21.4513 -12.6019
lfingers 7.12502
lthumb 4.93864 17.3205
rfemur -25.8238 10.0056 15.4642
rtibia 12.5299
rfoot -22.1312 0.895814
rtoes -19.7048
lfemur -23.1807 -5.13467 -27.6494
ltibia 12.818
lfoot -12.8415 2.59022
ltoes -25.7209
444
root 3.43864 18.8052 7.61165 -154.532 2.72393 176.494
lowerback -29.5561 -3.47037 -5.36746
upperback -2.19561 -1.93584 0.136828
thorax 13.2997 -0.823404 2.39876
lowerneck -2.41657 -1.6967 -3.31679
upperneck 6.22475 -2.22767 3.2669
head 2.47924 -1.05731 1.55901
rclavicle 1.16941e-014 1.39149e-015
rhumerus -38.8893 -28.2402 -71.7409
rradius 24.4065
rwrist 6.29497
rhand -10.9274 -413.992
rfingers 7.12502
rthumb 15.0904 -443.422
lclavicle 1.16941e-014 1.39149e-015
lhumerus -35.928 3.50722 82.7859
lradius 20.8598
lwrist -4.13209
lhand -21.6823 -12.9715
lfingers 7.12502
lthumb 4.71556 16.9561
rfemur -25.6355 9.89879 15.5567
rtibia 12.3077
rfoot -22.0643 0.963949
rtoes -19.3874
lfemur -23.0482 -5.15552 -27.5986
ltibia 12.7013
lfoot -12.871 2.56325
ltoes -26.1372
445
root 3.43762 18.8073 7.59851 -154.545 2.59572 176.534
lowerback -29.5091 -3.5012 -5.37226
upperback -2.31161 -1.96482 0.16392
thorax 13.1501 -0.824119 2.42292
lowerneck -2.37941 -1.75539 -3.45325
upperneck 5.6713 -2.31827 3.46468
head 2.29895 -1.10769 1.64243
rclavicle -1.57552e-014 2.13694e-014
rhumerus -38.8301 -28.2995 -71.6863
rradius 24.2203
rwrist 6.73612
rhand -10.9998 -414.385
rfingers 7.12502
rthumb 15.0207 -443.821
lclavicle -1.57552e-014 2.13694e-014
lhumerus -35.9183 3.68837 82.8443
lradius 20.8024
lwrist -4.29391
lhand -22.145 -14.242
lfingers 7.12502
lthumb 4.26877 15.6949
rfemur -25.4688 9.75972 15.6681
rtibia 12.1679
rfoot -22.1429 0.943185
rtoes -19.929
lfemur -22.9157 -5.20346 -27.5427
ltibia 12.5975
lfoot -12.7952 2.57873
ltoes -26.2694
446
root 3.43893 18.8058 7.58114 -154.487 2.52668 176.639
lowerback -29.5401 -3.51884 -5.37892
upperback -2.53138 -1.95621 0.228296
thorax 12.9165 -0.79557 2.50339
lowerneck -2.14174 -1.91261 -3.49297
upperneck 5.27131 -2.54069 3.62907
head 2.13709 -1.22026 1.69599
rclavicle 4.12789e-015 -1.09332e-015
rhumerus -38.9523 -28.1466 -71.5537
rradius 23.9811
rwrist 6.96628
rhand -10.8695 -413.81
rfingers 7.12502
rthumb 15.1462 -443.236
lclavicle 4.12789e-015 -1.09332e-015
lhumerus -35.9119 3.48697 83.0779
lradius 20.6119
lwrist -4.07075
lhand -22.4797 -15.2178
lfingers 7.12502
lthumb 3.94553 14.7254
rfemur -25.3929 9.48398 15.8634
rtibia 12.0621
rfoot -22.132 1.08379
rtoes -20.4719
lfemur -22.8279 -5.30249 -27.3838
ltibia 12.415
lfoot -12.7433 2.68208
ltoes -26.0805
447
root 3.43905 18.8019 7.56048 -154.388 2.62545 176.713
lowerback -29.8128 -3.45744 -5.34784
upperback -2.58631 -1.83912 0.189983
thorax 12.9632 -0.728932 2.48665
lowerneck -2.10533 -1.77005 -3.49083
upperneck 4.98892 -2.34953 3.56959
head 2.02908 -1.13019 1.68007
rclavicle 6.14369e-015 -4.34841e-015
rhumerus -38.7766 -28.0026 -71.7534
rradius 23.8166
rwrist 7.02386
rhand -10.4465 -413.214
rfingers 7.12502
rthumb 15.5537 -442.609
lclavicle 6.14369e-015 -4.34841e-015
lhumerus -35.8271 3.06676 83.3253
lradius 20.6449
lwrist -3.68736
lhand -22.4504 -14.8414
lfingers 7.12502
lthumb 3.97381 15.1013
rfemur -25.3683 9.27392 15.956
rtibia 11.8979
rfoot -21.9471 1.40934
rtoes -20.1207
lfemur -22.7593 -5.3664 -27.2951
ltibia 12.2286
lfoot -12.8089 2.85326
ltoes -26.0187
448
root 3.43604 18.7974 7.54203 -154.234 2.8049 176.734
lowerback -30.2155 -3.30314 -5.29532
upperback -2.47543 -1.60152 0.0382275
thorax 13.2413 -0.621389 2.37837
lowerneck -2.41185 -1.67954 -3.47779
upperneck 4.37835 -2.2336 3.77149
head 1.8843 -1.07259 1.74278
rclavicle -1.84621e-014 4.87022e-015
rhumerus -38.2125 -27.8637 -72.3621
rradius 23.8073
rwrist 6.73396
rhand -9.96593 -413.614
rfingers 7.12502
rthumb 16.0165 -442.972
lclavicle -1.84621e-014 4.87022e-015
lhumerus -35.516 2.7247 83.4687
lradius 20.7806
lwrist -3.44862
lhand -22.3029 -13.6468
lfingers 7.12502
lthumb 4.11631 16.2932
rfemur -25.4129 9.10219 15.9566
rtibia 11.7435
rfoot -21.8302 1.7808
rtoes -19.8974
lfemur -22.7706 -5.35388 -27.3385
ltibia 12.1019
lfoot -12.8725 3.01663
ltoes -26.594
449
root 3.43447 18.7949 7.52807 -154.071 2.83107 176.727
lowerback -30.5321 -3.26919 -5.32496
upperback -2.41198 -1.51004 -0.0147883
thorax 13.4446 -0.582602 2.36714
lowerneck -2.72743 -1.80253 -3.43354
upperneck 3.83155 -2.39785 3.96162
head 1.77298 -1.15231 1.78934
rclavicle -3.33586e-015 1.83379e-014
rhumerus -37.6415 -27.5391 -72.8598
rradius 23.744
rwrist 6.41956
rhand -9.9142 -413.749
rfingers 7.12502
rthumb 16.0663 -443.103
lclavicle -3.33586e-015 1.83379e-014
lhumerus -34.7866 2.6764 83.5774
lradius 20.5045
lwrist -3.32516
lhand -22.2142 -12.8521
lfingers 7.12502
lthumb 4.20189 17.0862
rfemur -25.4571 8.78734 15.9968
rtibia 11.622
rfoot -21.8126 2.12456
rtoes -19.8577
lfemur -22.839 -5.34157 -27.3878
ltibia 12.0055
lfoot -12.8443 3.04262
ltoes -27.1344
450
root 3.43536 18.7946 7.51823 -153.967 2.70017 176.768
lowerback -30.7164 -3.31072 -5.35911
upperback -2.41252 -1.53287 0.0111614
thorax 13.5282 -0.592068 2.40189
lowerneck -3.20853 -2.20413 -2.9378
upperneck 3.67244 -2.92964 3.47646
head 1.80646 -1.41996 1.52657
rclavicle 8.08805e-015 6.26172e-015
rhumerus -37.2432 -27.0703 -73.2446
rradius 23.7248
rwrist 6.07677
rhand -10.1685 -413.61
rfingers 7.12502
rthumb 15.8214 -442.983
lclavicle 8.08805e-015 6.26172e-015
lhumerus -34.4383 2.7187 83.6717
lradius 20.4808
lwrist -3.26092
lhand -22.2755 -12.6449
lfingers 7.12502
lthumb 4.14274 17.2946
rfemur -25.4733 8.64383 16.1056
rtibia 11.5819
rfoot -21.8588 2.16039
rtoes -20.0236
lfemur -22.8731 -5.36787 -27.3155
ltibia 11.9179
lfoot -12.7563 2.98475
ltoes -27.1551
451
root 3.43705 18.7935 7.50772 -153.944 2.62262 176.821
lowerback -30.7928 -3.32386 -5.38195
upperback -2.50723 -1.51583 0.0134212
thorax 13.4522 -0.572125 2.42423
lowerneck -3.01276 -2.1688 -3.00176
upperneck 3.42678 -2.88465 3.62596
head 1.69542 -1.39777 1.58827
rclavicle -6.33626e-016 9.0447e-015
rhumerus -37.1177 -26.4417 -73.6241
rradius 23.8018
rwrist 5.74319
rhand -10.3798 -413.751
rfingers 7.12502
rthumb 15.6178 -443.141
lclavicle -6.33626e-016 9.0447e-015
lhumerus -34.8049 2.65445 83.762
lradius 20.8744
lwrist -3.21592
lhand -22.4342 -13.0207
lfingers 7.12502
lthumb 3.98948 16.9217
rfemur -25.4108 8.72884 16.1809
rtibia 11.5371
rfoot -21.9001 2.03899
rtoes -20.2899
lfemur -22.81 -5.37758 -27.2365
ltibia 11.8482
lfoot -12.7397 2.93092
ltoes -27.0838
452
root 3.43828 18.7909 7.49468 -153.984 2.63502 176.792
lowerback -30.8519 -3.32747 -5.46159
upperback -2.61826 -1.45572 -0.04053
thorax 13.3457 -0.531729 2.43406
lowerneck -2.46586 -2.07139 -3.3467
upperneck 2.83975 -2.75812 4.22013
head 1.42608 -1.33413 1.84783
rclavicle -5.24295e-015 -3.3197e-014
rhumerus -37.0971 -26.1488 -73.8525
rradius 23.8051
rwrist 5.86847
rhand -10.4387 -413.722
rfingers 7.12502
rthumb 15.5612 -443.116
lclavicle -5.24295e-015 -3.3197e-014
lhumerus -34.8635 2.55587 83.8149
lradius 20.8951
lwrist -3.15643
lhand -22.4578 -13.6556
lfingers 7.12502
lthumb 3.96668 16.2872
rfemur -25.208 8.67179 16.1738
rtibia 11.3444
rfoot -21.8333 2.11285
rtoes -20.0347
lfemur -22.6474 -5.37469 -27.284
ltibia 11.7488
lfoot -12.7875 2.85027
ltoes -26.8828
